<svg width="22" height="22" viewBox="0 0 22 22" fill="none" xmlns="http://www.w3.org/2000/svg">
<path d="M8.375 19.2031H13.625" stroke="#012546" stroke-width="2" stroke-linecap="round" stroke-linejoin="round"/>
<path d="M5.11047 9.03132C5.10939 8.25302 5.26235 7.48219 5.56056 6.76328C5.85877 6.04437 6.29632 5.39159 6.84799 4.84257C7.39966 4.29355 8.05453 3.85915 8.77487 3.56441C9.49521 3.26966 10.2668 3.1204 11.0451 3.12524C14.2926 3.14938 16.8903 5.84878 16.8903 9.10547V9.35945C16.8903 12.2974 17.505 14.0023 18.0464 14.9341C18.1047 15.0337 18.1357 15.1469 18.1363 15.2623C18.137 15.3777 18.1071 15.4912 18.0499 15.5914C17.9926 15.6915 17.91 15.7748 17.8103 15.8329C17.7105 15.8909 17.5973 15.9217 17.4819 15.9219H4.51826C4.40285 15.9217 4.28957 15.8909 4.18984 15.8329C4.0901 15.7748 4.00744 15.6915 3.9502 15.5913C3.89295 15.4911 3.86314 15.3775 3.86378 15.2621C3.86442 15.1467 3.89548 15.0336 3.95383 14.934C4.4955 14.0022 5.11047 12.2973 5.11047 9.35945L5.11047 9.03132Z" stroke="#012546" stroke-width="2" stroke-linecap="round" stroke-linejoin="round"/>
</svg>
