<svg width="24" height="24" viewBox="0 0 24 24" fill="none" xmlns="http://www.w3.org/2000/svg">
<path d="M17.2563 6.75H3.75635C2.92792 6.75 2.25635 7.42157 2.25635 8.25V18.75C2.25635 19.5784 2.92792 20.25 3.75635 20.25H17.2563C18.0848 20.25 18.7563 19.5784 18.7563 18.75V8.25C18.7563 7.42157 18.0848 6.75 17.2563 6.75Z" fill="#000080"/>
<path d="M20.2563 3.75H6.00635C5.80744 3.75 5.61667 3.82902 5.47602 3.96967C5.33537 4.11032 5.25635 4.30109 5.25635 4.5C5.25635 4.69891 5.33537 4.88968 5.47602 5.03033C5.61667 5.17098 5.80744 5.25 6.00635 5.25H20.2563V16.5C20.2563 16.6989 20.3354 16.8897 20.476 17.0303C20.6167 17.171 20.8074 17.25 21.0063 17.25C21.2053 17.25 21.396 17.171 21.5367 17.0303C21.6773 16.8897 21.7563 16.6989 21.7563 16.5V5.25C21.7559 4.85231 21.5977 4.47105 21.3165 4.18984C21.0353 3.90864 20.654 3.75045 20.2563 3.75Z" fill="#000080"/>
</svg>
