<svg width="24" height="24" viewBox="0 0 24 24" fill="none" xmlns="http://www.w3.org/2000/svg">
<path d="M5.125 19.875C4.57272 19.875 4.125 19.4287 4.125 18.8764C4.125 13.0351 4.125 4.875 4.125 4.875C4.125 4.67609 4.20402 4.48532 4.34467 4.34467C4.48532 4.20402 4.67609 4.125 4.875 4.125H19.125C19.3239 4.125 19.5147 4.20402 19.6553 4.34467C19.796 4.48532 19.875 4.67609 19.875 4.875V19.125C19.875 19.3239 19.796 19.5147 19.6553 19.6553C19.5147 19.796 19.3239 19.875 19.125 19.875C19.125 19.875 15.2188 19.875 12.7159 19.875" fill="#000080"/>
<path d="M4.125 4.875C4.125 4.875 4.125 13.0351 4.125 18.8764C4.125 19.4287 4.57272 19.875 5.125 19.875H12.7159C15.2188 19.875 19.125 19.875 19.125 19.875C19.3239 19.875 19.5147 19.796 19.6553 19.6553C19.796 19.5147 19.875 19.3239 19.875 19.125V4.875C19.875 4.67609 19.796 4.48532 19.6553 4.34467C19.5147 4.20402 19.3239 4.125 19.125 4.125H4.875C4.67609 4.125 4.48532 4.20402 4.34467 4.34467C4.20402 4.48532 4.125 4.67609 4.125 4.875Z" stroke="#000080" stroke-width="1.5" stroke-linecap="round" stroke-linejoin="round"/>
<path d="M17 9L11 15L8 12" stroke="white" stroke-width="1.5" stroke-linecap="round" stroke-linejoin="round"/>
</svg>
