<svg width="25" height="24" viewBox="0 0 25 24" fill="none" xmlns="http://www.w3.org/2000/svg">
<path d="M21.6744 15.3008C21.6884 15.2686 21.7001 15.2355 21.7094 15.2017C22.4305 13.1272 22.4302 10.87 21.7084 8.79571C21.6994 8.7635 21.6883 8.73193 21.6751 8.70121C20.9941 6.81416 19.7484 5.18262 18.1075 4.02839C16.4666 2.87416 14.5101 2.25325 12.5039 2.25008L12.5 2.24664L12.4961 2.25008C10.4901 2.25325 8.53371 2.87404 6.89291 4.02806C5.25211 5.18208 4.00646 6.81336 3.32527 8.70015C3.31165 8.73165 3.30023 8.76406 3.29108 8.79714C2.56922 10.8727 2.56965 13.1312 3.29231 15.2065C3.30103 15.2374 3.31174 15.2677 3.32436 15.2973C4.00514 17.1847 5.25074 18.8166 6.89174 19.9712C8.53274 21.1257 10.4895 21.7468 12.496 21.75L12.5 21.7535L12.504 21.75C14.5098 21.7468 16.466 21.1261 18.1067 19.9722C19.7474 18.8184 20.9931 17.1874 21.6744 15.3008ZM12.5 4.27115C13.5886 5.39915 14.4067 6.75967 14.8927 8.25003H10.1073C10.5933 6.75967 11.4114 5.39915 12.5 4.27115ZM10.1073 15.75H14.8927C14.4067 17.2404 13.5886 18.6009 12.5 19.7289C11.4114 18.6009 10.5933 17.2404 10.1073 15.75ZM9.71464 14.25C9.42845 12.7637 9.42845 11.2364 9.71464 9.75003H15.2854C15.5715 11.2364 15.5715 12.7637 15.2854 14.25H9.71464ZM16.8152 9.75003H20.4381C20.854 11.2212 20.854 12.7788 20.4381 14.25H16.8152C17.0616 12.7602 17.0616 11.2399 16.8152 9.75003ZM19.8474 8.25003H16.4757C16.0267 6.66959 15.2565 5.19875 14.2133 3.92944C15.414 4.18674 16.5425 4.7079 17.5169 5.45518C18.4914 6.20245 19.2874 7.15712 19.8474 8.25003H19.8474ZM14.2132 20.0706C15.2564 18.8013 16.0266 17.3305 16.4757 15.75H19.8474C19.2874 16.8429 18.4914 17.7976 17.5169 18.5449C16.5425 19.2922 15.414 19.8133 14.2132 20.0706Z" fill="#000080"/>
</svg>
