<svg width="25" height="24" viewBox="0 0 25 24" fill="none" xmlns="http://www.w3.org/2000/svg">
<path d="M16.2556 12C16.2556 12.7417 16.0357 13.4667 15.6236 14.0834C15.2116 14.7001 14.6259 15.1807 13.9407 15.4645C13.2555 15.7484 12.5015 15.8226 11.774 15.6779C11.0466 15.5333 10.3784 15.1761 9.85396 14.6517C9.32952 14.1272 8.97236 13.459 8.82767 12.7316C8.68298 12.0042 8.75724 11.2502 9.04107 10.5649C9.32489 9.87971 9.80554 9.29404 10.4222 8.88199C11.0389 8.46993 11.7639 8.25 12.5056 8.25C13.5002 8.25 14.454 8.64509 15.1573 9.34835C15.8605 10.0516 16.2556 11.0054 16.2556 12ZM23.7556 6V18C23.7556 18.1989 23.6766 18.3897 23.5359 18.5303C23.3953 18.671 23.2045 18.75 23.0056 18.75H2.00562C1.8067 18.75 1.61594 18.671 1.47529 18.5303C1.33463 18.3897 1.25562 18.1989 1.25562 18V6C1.25562 5.80109 1.33463 5.61032 1.47529 5.46967C1.61594 5.32902 1.8067 5.25 2.00562 5.25H23.0056C23.2045 5.25 23.3953 5.32902 23.5359 5.46967C23.6766 5.61032 23.7556 5.80109 23.7556 6ZM22.2556 10.3453C21.404 10.0935 20.6289 9.63263 20.0009 9.00467C19.373 8.37671 18.9121 7.60162 18.6603 6.75H6.35093C6.09912 7.60162 5.63825 8.37671 5.01029 9.00467C4.38233 9.63263 3.60724 10.0935 2.75562 10.3453V13.6547C3.60724 13.9065 4.38233 14.3674 5.01029 14.9953C5.63825 15.6233 6.09912 16.3984 6.35093 17.25H18.6603C18.9121 16.3984 19.373 15.6233 20.0009 14.9953C20.6289 14.3674 21.404 13.9065 22.2556 13.6547V10.3453Z" fill="#000080"/>
</svg>
